<?xml version="1.0" encoding="UTF-8" standalone="no"?>
<svg
   height="535"
   width="925"
   viewBox="-35.20005 -41.33325 235.15588 165.84963"
   version="1.1"
   id="svg23"
   sodipodi:docname="youtube1.svg"
   inkscape:version="1.1 (c68e22c387, 2021-05-23)"
   xmlns:inkscape="http://www.inkscape.org/namespaces/inkscape"
   xmlns:sodipodi="http://sodipodi.sourceforge.net/DTD/sodipodi-0.dtd"
   xmlns="http://www.w3.org/2000/svg"
   xmlns:svg="http://www.w3.org/2000/svg">
  <defs
     id="defs27" />
  <sodipodi:namedview
     id="namedview25"
     pagecolor="#ffffff"
     bordercolor="#666666"
     borderopacity="1.0"
     inkscape:pageshadow="2"
     inkscape:pageopacity="0.0"
     inkscape:pagecheckerboard="0"
     showgrid="false"
     inkscape:zoom="0.94416667"
     inkscape:cx="478.19947"
     inkscape:cy="569.81465"
     inkscape:window-width="1920"
     inkscape:window-height="1002"
     inkscape:window-x="-8"
     inkscape:window-y="-8"
     inkscape:window-maximized="1"
     inkscape:current-layer="svg23" />
  <path
     d="m 195.043,-14.482927 c -2.699,-10.162001 -10.65,-18.165001 -20.748,-20.881002 -18.299,-4.936002 -91.681971,-4.936002 -91.681971,-4.936002 0,0 -73.3819732,0 -91.6819648,4.936002 -10.0979982,2.716001 -18.0510002,10.719002 -20.7480012,20.881003 -4.903002,18.4189941 -4.903002,56.849991 -4.903002,56.849991 0,0 0,38.428966 4.903002,56.849937 C -27.119936,109.38 -19.166935,117.381 -9.0699358,120.1 c 18.2999916,4.934 91.6819648,4.934 91.6819648,4.934 0,0 73.382971,0 91.681971,-4.934 10.098,-2.718 18.049,-10.72 20.748,-20.881998 4.904,-18.420971 4.904,-56.849937 4.904,-56.849937 0,0 0,-38.4309975 -4.904,-56.849992"
     fill="#ff0000"
     id="path19" />
  <path
     d="M 58.613056,77.259037 119.946,42.369065 58.613056,7.4750664 Z"
     fill="#ffffff"
     id="path21" />
</svg>
